#!OML:ASF H:\Dans Jumps\Project 1\Capture day 1\Session 1\subject.ASF
:FULLY-SPECIFIED
:DEGREES
343
root -0.180748 16.2281 -8.27935 1.30834 5.51255 -1.83205
lowerback 10.8618 0.668271 -1.34622
upperback 6.74465 0.790033 1.9058
thorax 0.895835 0.326 2.65479
lowerneck -15.2293 -1.37885 -2.00008
upperneck 31.4112 -2.08951 2.20581
head 13.0966 -0.839391 0.887182
rclavicle -9.24349e-015 -1.47101e-014
rhumerus -15.1536 -17.5942 -82.4648
rradius 23.9726
rwrist 35.5678
rhand -22.9125 -23.1341
rfingers 7.12502
rthumb 3.52756 -53.0847
lclavicle -9.24349e-015 -1.47101e-014
lhumerus -10.3679 4.26621 87.3617
lradius 20.9273
lwrist 13.4625
lhand -29.3893 -13.9487
lfingers 7.12502
lthumb -2.7277 16.0136
rfemur -30.4986 -7.55766 20.507
rtibia 55.7206
rfoot -23.8388 -2.27709
rtoes 1.63225
lfemur -32.6659 5.52483 -15.9613
ltibia 54.1202
lfoot -20.2455 2.20954
ltoes -6.74282
344
root -0.168707 16.2169 -8.25473 1.13481 5.43605 -1.9083
lowerback 11.1969 0.645555 -1.1062
upperback 6.87627 0.779051 1.93003
thorax 0.854985 0.326433 2.54417
lowerneck -15.1663 -1.35321 -1.94645
upperneck 31.4609 -2.04469 2.12839
head 13.101 -0.823953 0.855276
rclavicle 3.8763e-015 -1.98785e-015
rhumerus -16.0664 -18.4939 -81.4101
rradius 23.3339
rwrist 36.3638
rhand -23.0034 -23.3633
rfingers 7.12502
rthumb 3.43985 -53.3153
lclavicle 3.8763e-015 -1.98785e-015
lhumerus -11.3431 5.85457 86.3955
lradius 19.8968
lwrist 13.2595
lhand -29.593 -13.7409
lfingers 7.12502
lthumb -2.92442 16.2188
rfemur -30.1716 -7.84978 20.5735
rtibia 55.6806
rfoot -24.1939 -2.39371
rtoes 1.24938
lfemur -32.4101 5.62252 -15.9412
ltibia 54.236
lfoot -20.4564 2.74619
ltoes -7.75153
345
root -0.157462 16.2178 -8.23258 1.13453 5.31942 -1.92514
lowerback 11.3975 0.635172 -0.948876
upperback 6.9454 0.7785 1.93959
thorax 0.820482 0.330323 2.46446
lowerneck -15.1119 -1.33386 -1.90153
upperneck 31.6579 -2.01275 2.06281
head 13.1703 -0.812975 0.828529
rclavicle -1.00386e-014 -2.127e-014
rhumerus -17.0171 -19.4425 -80.2874
rradius 22.6342
rwrist 37.4614
rhand -22.8688 -23.5337
rfingers 7.12502
rthumb 3.56983 -53.4836
lclavicle -1.00386e-014 -2.127e-014
lhumerus -12.3469 7.58978 85.3398
lradius 18.731
lwrist 12.5617
lhand -29.6443 -13.3135
lfingers 7.12502
lthumb -2.97391 16.6455
rfemur -29.9534 -8.01766 20.5768
rtibia 55.4687
rfoot -24.4456 -2.45254
rtoes 0.998241
lfemur -32.2164 5.67648 -15.9924
ltibia 54.1222
lfoot -20.5592 3.27913
ltoes -8.38673
346
root -0.146888 16.227 -8.21263 1.33984 5.16663 -1.87802
lowerback 11.4367 0.6346 -0.883349
upperback 6.95134 0.783139 1.93478
thorax 0.805959 0.334552 2.42173
lowerneck -15.0692 -1.31767 -1.87014
upperneck 31.9439 -1.98825 2.01389
head 13.281 -0.804308 0.809994
rclavicle 1.12313e-014 -2.04748e-014
rhumerus -18.0114 -20.4465 -79.1006
rradius 21.9381
rwrist 38.7913
rhand -22.5209 -23.6037
rfingers 7.12502
rthumb 3.90579 -53.5476
lclavicle 1.12313e-014 -2.04748e-014
lhumerus -13.386 9.51963 84.1745
lradius 17.4733
lwrist 11.2394
lhand -29.559 -12.6607
lfingers 7.12502
lthumb -2.89162 17.2994
rfemur -29.9557 -8.04946 20.5264
rtibia 55.2095
rfoot -24.5866 -2.48054
rtoes 0.878832
lfemur -32.1711 5.65543 -16.1157
ltibia 53.8682
lfoot -20.5758 3.81615
ltoes -8.80306
